PathFileType	4	(X/Y/Z)	Walk7.trc
DataRate	CameraRate	NumFrames	NumMarkers	Units	OrigDataRate	OrigDataStartFrame	OrigNumFrames
200.000000	200.000000	6	59	mm	200.000000	286	495
Frame#	Times		LFHD		RFHD		C7		CLAV		RBack		RASI		RACR1		RUA1		RElbowM		RFA1		RWRR		RWRU		LACR1		LUA1		LFA1		LWRR		LWRU		RTH1		RTH3		LTH2		LTH4		LASI		LTH3		RTB1		RTB3		RCAR		LTB2		LCAR		T10		RPSI		LLFC		LBHD		LToe		RBHD		STRN		RElbow		RTB4		RTH2		LTB1		RTB2		LTB4		LElbow		LPSI		LElbowM		LTH1		LMMAL		LMT1		RTH4		LTB3		LCAL		LMT5		RLFC		LLMAL		RMT1		RToe		RCAL		RMMAL		RLMAL		RMT5
			X1	Y1	Z1	X2	Y2	Z2	X3	Y3	Z3	X4	Y4	Z4	X5	Y5	Z5	X6	Y6	Z6	X7	Y7	Z7	X8	Y8	Z8	X9	Y9	Z9	X10	Y10	Z10	X11	Y11	Z11	X12	Y12	Z12	X13	Y13	Z13	X14	Y14	Z14	X15	Y15	Z15	X16	Y16	Z16	X17	Y17	Z17	X18	Y18	Z18	X19	Y19	Z19	X20	Y20	Z20	X21	Y21	Z21	X22	Y22	Z22	X23	Y23	Z23	X24	Y24	Z24	X25	Y25	Z25	X26	Y26	Z26	X27	Y27	Z27	X28	Y28	Z28	X29	Y29	Z29	X30	Y30	Z30	X31	Y31	Z31	X32	Y32	Z32	X33	Y33	Z33	X34	Y34	Z34	X35	Y35	Z35	X36	Y36	Z36	X37	Y37	Z37	X38	Y38	Z38	X39	Y39	Z39	X40	Y40	Z40	X41	Y41	Z41	X42	Y42	Z42	X43	Y43	Z43	X44	Y44	Z44	X45	Y45	Z45	X46	Y46	Z46	X47	Y47	Z47	X48	Y48	Z48	X49	Y49	Z49	X50	Y50	Z50	X51	Y51	Z51	X52	Y52	Z52	X53	Y53	Z53	X54	Y54	Z54	X55	Y55	Z55	X56	Y56	Z56	X57	Y57	Z57	X58	Y58	Z58	X59	Y59	Z59

286	1.43	-305.34	1421.8	-47.137	-313.76	1409.8	48.302	-484.94	1262.1	-13.96	-342.91	1176.2	-19.66	-530.16	1141.5	107.15	-351.96	822.89	146.31	-410.94	1206.7	162.92	-402.54	1063.9	241.72	-463.88	904.73	203.11	-347.62	823.95	280.43	-324.89	725.68	245.3	-361.33	724.04	308.43	-429.62	1204.9	-203.47	-424.61	1043.8	-278.36	-414.73	838.63	-341.78	-381.48	726.34	-337.39	-433.8	730.77	-372.5	-415.57	623	199.45	-416.22	454.24	162.18	-344.76	586.35	-174.44	-394.17	566.98	-201.54	-368.18	815.53	-170.94	-381.16	485.42	-171.02	-484.39	265.31	98.295	-624.97	171.23	63.358	-310.21	672.18	298.78	-349.69	213.24	-114.32	-396.53	680.97	-385.73	-571.45	1062.8	2.0337	-608.85	832.28	57.601	-344.08	399.81	-131.59	-436.67	1352.2	-76.919	-211.93	30.305	-43.218	-446.72	1344.6	55.629	-293.89	1070.8	-24.5	-412.57	938.08	274.58	-558.11	219.74	80.342	-362.13	543.87	161.08	-320.91	302.53	-62.654	-585.69	248.14	127.14	-331.02	215.3	-54.998	-461.2	928.23	-291.99	-623.04	838.03	-48.91	-475.85	899.93	-223.16	-408.29	649.8	-223.05	-364.97	73.393	-2.6	-261.46	32.485	-19.911	-418.09	538.54	182.3	-334.49	132.39	-48.712	-428.13	41.725	-35.262	-305.05	19.951	-104.2	-458.57	373.95	145.62	-385.48	56.078	-80.774	-681.68	60.779	4.6034	-655.86	28.062	40.286	-750.35	206.19	39.847	-684.23	168.57	9.2816	-710.75	166.4	87.904	-713.87	61.162	88.243
287	1.435	-299.35	1422.4	-47.31	-307.78	1410.5	48.14	-479.21	1262.9	-14.033	-337.14	1177	-19.659	-524.55	1142.3	106.99	-346.11	823.72	145.99	-405.43	1207.5	162.85	-397.27	1064.7	241.7	-458.91	905.71	202.67	-343.14	824.51	280.3	-320.83	726.1	245.01	-357.15	724.64	308.23	-423.62	1205.8	-203.44	-417.59	1044.8	-278.39	-406.87	839.59	-341.68	-372.9	727.55	-336.88	-424.99	731.56	-372.38	-408.19	623.64	199.23	-405.44	454.77	162.28	-340.94	586.03	-175.13	-390.69	567.1	-201.93	-362.98	816.5	-171.21	-378.28	485.45	-171.3	-472.97	266.34	98.384	-614.58	173.56	63.957	-306.43	672.29	298.31	-348.69	212.99	-114.44	-387.33	681.87	-385.15	-565.67	1063.5	1.9449	-603.16	832.86	57.809	-341.6	399.52	-131.85	-430.8	1353	-77.011	-212.07	30.425	-43.158	-440.84	1345.5	55.532	-288.29	1071.6	-24.747	-407.77	938.81	274.36	-547.28	221.49	80.714	-353.06	545.47	160.98	-318.92	302.12	-62.954	-574.34	250.09	127.63	-329.77	214.94	-55.2	-454.19	929.06	-292.28	-617.57	839.13	-48.667	-469.15	900.93	-223.51	-404.2	650.08	-223.34	-364.94	73.381	-2.5726	-261.63	32.485	-19.978	-409.04	539.12	182.27	-334	132.08	-48.807	-428.22	41.706	-35.25	-305.15	20.009	-104.22	-446.75	374.46	145.82	-385.55	56.067	-80.782	-671.34	63.139	7.148	-646.21	29.114	43.75	-740.08	209.38	40.58	-674.13	171.3	10.111	-700.48	169.72	88.821	-704.03	64.749	90.31
288	1.44	-293.38	1423.1	-47.457	-301.83	1411.3	48.006	-473.47	1263.6	-14.062	-331.38	1177.7	-19.617	-518.94	1143.1	106.83	-340.34	824.62	145.77	-399.95	1208.3	162.85	-392.03	1065.5	241.74	-453.94	906.64	202.33	-338.64	825.02	280.2	-316.76	726.48	244.73	-352.94	725.18	308.06	-417.66	1206.7	-203.39	-410.61	1045.7	-278.39	-398.97	840.54	-341.56	-364.25	728.77	-336.35	-416.1	732.36	-372.26	-400.87	624.37	199	-394.77	455.45	162.3	-337.24	585.69	-175.82	-387.33	567.18	-202.29	-357.85	817.4	-171.46	-375.49	485.44	-171.53	-461.45	267.52	98.27	-603.91	175.76	64.472	-302.58	672.39	297.84	-347.74	212.74	-114.55	-378.03	682.81	-384.56	-559.9	1064.3	1.8661	-597.53	833.5	57.969	-339.19	399.21	-132.09	-424.94	1353.8	-77.071	-212.22	30.545	-43.123	-434.97	1346.4	55.468	-282.68	1072.3	-24.903	-402.96	939.48	274.21	-536.24	223.23	80.948	-344.1	547.18	160.82	-316.99	301.7	-63.241	-562.8	251.94	128.02	-328.57	214.58	-55.397	-447.18	929.88	-292.58	-612.12	840.25	-48.453	-462.48	901.89	-223.89	-400.25	650.3	-223.61	-364.91	73.371	-2.5441	-261.81	32.492	-20.049	-400.08	539.84	182.2	-333.53	131.77	-48.9	-428.3	41.69	-35.238	-305.25	20.056	-104.23	-434.96	375.17	145.92	-385.61	56.059	-80.785	-660.31	65.299	9.7711	-635.65	30.263	47.215	-729.67	212.05	41.252	-663.75	173.73	10.9	-689.89	172.73	89.714	-693.42	68.14	92.51
289	1.445	-287.43	1423.7	-47.577	-295.88	1412	47.9	-467.71	1264.4	-14.046	-325.61	1178.5	-19.536	-513.34	1143.9	106.68	-334.64	825.55	145.65	-394.49	1209	162.9	-386.81	1066.3	241.81	-448.98	907.5	202.09	-334.13	825.47	280.13	-312.67	726.83	244.46	-348.68	725.67	307.9	-411.74	1207.5	-203.31	-403.66	1046.6	-278.35	-391.03	841.49	-341.43	-355.54	730	-335.79	-407.12	733.17	-372.13	-393.59	625.18	198.76	-384.23	456.29	162.25	-333.61	585.33	-176.5	-384.06	567.24	-202.62	-352.78	818.23	-171.71	-372.75	485.41	-171.73	-449.84	268.81	97.974	-592.94	177.79	64.917	-298.67	672.48	297.39	-346.81	212.5	-114.64	-368.61	683.81	-383.97	-554.14	1065.1	1.7941	-591.96	834.22	58.081	-336.85	398.9	-132.31	-419.08	1354.6	-77.1	-212.35	30.659	-43.109	-429.09	1347.3	55.435	-277.06	1073.1	-24.969	-398.13	940.1	274.1	-524.99	224.94	81.06	-335.24	548.98	160.59	-315.1	301.28	-63.504	-551.09	253.67	128.32	-327.39	214.22	-55.58	-440.16	930.67	-292.89	-606.68	841.38	-48.27	-455.85	902.8	-224.3	-396.41	650.5	-223.85	-364.89	73.362	-2.5122	-261.97	32.501	-20.118	-391.22	540.69	182.09	-333.08	131.47	-48.982	-428.38	41.678	-35.226	-305.35	20.095	-104.24	-423.18	376.07	145.93	-385.67	56.057	-80.783	-648.61	67.229	12.424	-624.21	31.478	50.626	-719.1	214.18	41.877	-653.08	175.81	11.653	-678.96	175.4	90.586	-682.06	71.269	94.802
290	1.45	-281.51	1424.4	-47.669	-289.95	1412.7	47.822	-461.92	1265.1	-13.989	-319.84	1179.2	-19.421	-507.74	1144.6	106.53	-329.02	826.52	145.63	-389.04	1209.7	162.99	-381.63	1067	241.93	-444.02	908.3	201.94	-329.59	825.88	280.09	-308.56	727.15	244.2	-344.39	726.11	307.76	-405.85	1208.3	-203.21	-396.76	1047.5	-278.3	-383.05	842.43	-341.27	-346.77	731.24	-335.21	-398.07	733.98	-371.98	-386.37	626.07	198.52	-373.83	457.26	162.14	-330.05	584.97	-177.16	-380.85	567.27	-202.91	-347.78	818.99	-171.94	-370.06	485.38	-171.88	-438.13	270.2	97.517	-581.69	179.63	65.303	-294.69	672.58	296.95	-345.89	212.26	-114.7	-359.1	684.87	-383.38	-548.37	1065.9	1.7262	-586.45	835	58.147	-334.55	398.59	-132.49	-413.24	1355.3	-77.098	-212.47	30.759	-43.11	-423.22	1348.2	55.434	-271.43	1073.8	-24.945	-393.27	940.67	274.06	-513.53	226.6	81.066	-326.5	550.86	160.31	-313.24	300.86	-63.733	-539.21	255.26	128.53	-326.24	213.86	-55.742	-433.15	931.44	-293.21	-601.26	842.54	-48.121	-449.24	903.67	-224.74	-392.65	650.66	-224.07	-364.87	73.351	-2.4749	-262.12	32.506	-20.18	-382.45	541.65	181.95	-332.63	131.18	-49.047	-428.46	41.672	-35.213	-305.43	20.127	-104.24	-411.43	377.13	145.86	-385.73	56.059	-80.773	-636.29	68.909	15.06	-611.92	32.725	53.929	-708.36	215.74	42.475	-642.13	177.53	12.376	-667.69	177.68	91.441	-669.98	74.079	97.139
291	1.455	-275.61	1425	-47.733	-284.04	1413.5	47.773	-456.1	1265.9	-13.893	-314.07	1179.9	-19.273	-502.14	1145.3	106.4	-323.47	827.52	145.7	-383.59	1210.3	163.14	-376.46	1067.6	242.08	-439.07	909.05	201.88	-325.02	826.23	280.06	-304.42	727.43	243.95	-340.07	726.51	307.64	-399.98	1209	-203.09	-389.91	1048.3	-278.21	-375.04	843.37	-341.1	-337.96	732.5	-334.6	-388.96	734.81	-371.83	-379.21	627.02	198.29	-363.57	458.37	161.97	-326.53	584.6	-177.79	-377.68	567.3	-203.16	-342.82	819.7	-172.17	-367.39	485.33	-172	-426.33	271.68	96.919	-570.14	181.24	65.641	-290.65	672.67	296.54	-344.96	212.03	-114.75	-349.5	686	-382.78	-542.62	1066.7	1.6598	-580.98	835.84	58.165	-332.27	398.28	-132.64	-407.4	1356.1	-77.067	-212.57	30.841	-43.12	-417.34	1349	55.463	-265.78	1074.5	-24.835	-388.37	941.19	274.05	-501.87	228.17	80.982	-317.88	552.81	159.99	-311.42	300.44	-63.921	-527.16	256.7	128.67	-325.11	213.51	-55.875	-426.14	932.2	-293.54	-595.86	843.7	-48.009	-442.66	904.5	-225.21	-388.94	650.8	-224.26	-364.85	73.338	-2.4303	-262.26	32.505	-20.232	-373.77	542.71	181.78	-332.19	130.88	-49.089	-428.53	41.673	-35.2	-305.52	20.153	-104.24	-399.71	378.34	145.7	-385.77	56.066	-80.753	-623.35	70.322	17.631	-598.82	33.972	57.074	-697.45	216.72	43.065	-630.88	178.86	13.074	-656.09	179.53	92.281	-657.21	76.52	99.476
